HIERARCHY
ROOT Hips
{
	OFFSET 0.000000 0.000000 0.000000
	CHANNELS 6 Xposition Yposition Zposition Xrotation Yrotation Zrotation
	JOINT Spine
	{
		OFFSET 0.000000 0.042231 0.063346
		CHANNELS 3 Xrotation Yrotation Zrotation
		JOINT Spine1
		{
			OFFSET 0.000000 0.014667 0.083179
			CHANNELS 3 Xrotation Yrotation Zrotation
			JOINT Spine2
			{
				OFFSET 0.000000 0.007361 0.084141
				CHANNELS 3 Xrotation Yrotation Zrotation
				JOINT Spine3
				{
					OFFSET 0.000000 0.000000 0.084462
					CHANNELS 3 Xrotation Yrotation Zrotation
					JOINT Neck
					{
						OFFSET 0.000000 -0.031673 0.221713
						CHANNELS 3 Xrotation Yrotation Zrotation
						JOINT Head
						{
							OFFSET 0.000000 -0.020167 0.114371
							CHANNELS 3 Xrotation Yrotation Zrotation
							End Site
							{
								OFFSET 0.000000 0.000000 0.000000
							}
						}
					}
					JOINT RightShoulder
					{
						OFFSET -0.029161 -0.048602 0.157471
						CHANNELS 3 Xrotation Yrotation Zrotation
						JOINT RightArm
						{
							OFFSET -0.144834 0.000000 0.000000
							CHANNELS 3 Xrotation Yrotation Zrotation
							JOINT RightForeArm
							{
								OFFSET -0.274949 0.000000 0.000000
								CHANNELS 3 Xrotation Yrotation Zrotation
								JOINT RightHand
								{
									OFFSET -0.254725 0.000000 0.000000
									CHANNELS 3 Xrotation Yrotation Zrotation
									JOINT RightHandEnd
									{
										OFFSET -0.068160 0.000000 0.000000
										CHANNELS 3 Xrotation Yrotation Zrotation
										End Site
										{
											OFFSET 0.000000 0.000000 0.000000
										}
									}
									JOINT RightHandThumb1
									{
										OFFSET -0.027264 -0.045440 -0.018176
										CHANNELS 3 Xrotation Yrotation Zrotation
										End Site
										{
											OFFSET 0.000000 0.000000 0.000000
										}
									}
								}
							}
						}
					}
					JOINT LeftShoulder
					{
						OFFSET 0.029161 -0.048602 0.157471
						CHANNELS 3 Xrotation Yrotation Zrotation
						JOINT LeftArm
						{
							OFFSET 0.144834 0.000000 0.000000
							CHANNELS 3 Xrotation Yrotation Zrotation
							JOINT LeftForeArm
							{
								OFFSET 0.274949 0.000000 0.000000
								CHANNELS 3 Xrotation Yrotation Zrotation
								JOINT LeftHand
								{
									OFFSET 0.254725 0.000000 0.000000
									CHANNELS 3 Xrotation Yrotation Zrotation
									JOINT LeftHandEnd
									{
										OFFSET 0.068160 0.000000 0.000000
										CHANNELS 3 Xrotation Yrotation Zrotation
										End Site
										{
											OFFSET 0.000000 0.000000 0.000000
										}
									}
									JOINT LeftHandThumb1
									{
										OFFSET 0.027264 -0.045440 -0.018176
										CHANNELS 3 Xrotation Yrotation Zrotation
										End Site
										{
											OFFSET 0.000000 0.000000 0.000000
										}
									}
								}
							}
						}
					}
				}
			}
		}
	}
	JOINT RightUpLeg
	{
		OFFSET -0.086512 0.000000 -0.025273
		CHANNELS 3 Xrotation Yrotation Zrotation
		JOINT RightLeg
		{
			OFFSET 0.000000 0.000000 -0.433119
			CHANNELS 3 Xrotation Yrotation Zrotation
			JOINT RightFoot
			{
				OFFSET 0.000000 0.000000 -0.404688
				CHANNELS 3 Xrotation Yrotation Zrotation
				JOINT RightToeBase
				{
					OFFSET 0.000000 -0.126496 -0.046041
					CHANNELS 3 Xrotation Yrotation Zrotation
					End Site
					{
						OFFSET 0.000000 0.000000 0.000000
					}
				}
			}
		}
	}
	JOINT LeftUpLeg
	{
		OFFSET 0.086512 0.000000 -0.025273
		CHANNELS 3 Xrotation Yrotation Zrotation
		JOINT LeftLeg
		{
			OFFSET 0.000000 0.000000 -0.433119
			CHANNELS 3 Xrotation Yrotation Zrotation
			JOINT LeftFoot
			{
				OFFSET 0.000000 0.000000 -0.404688
				CHANNELS 3 Xrotation Yrotation Zrotation
				JOINT LeftToeBase
				{
					OFFSET 0.000000 -0.126496 -0.046041
					CHANNELS 3 Xrotation Yrotation Zrotation
					End Site
					{
						OFFSET 0.000000 0.000000 0.000000
					}
				}
			}
		}
	}
}
MOTION
Frames: 14
Frame Time: 0.033333
0.122664 -1.709362 0.894649 0.094800 1.047000 -179.970800 0.491800 -0.110100 -0.128800 1.148700 -0.407900 0.006300 1.469300 -1.164500 1.047400 0.496200 -0.362600 0.549300 -8.577800 2.494000 3.183600 -12.040700 5.903000 2.368800 -3.649700 -4.224100 12.963600 -27.633500 -39.966900 6.607400 0.000000 0.000100 77.574100 -28.186200 25.447500 0.809100 0.000000 0.000000 0.000000 0.000000 0.000000 0.000000 -1.508200 3.640200 -14.402700 -11.142800 34.657300 -27.390400 0.000000 -0.000100 -69.751600 -30.097400 -20.122200 -2.937300 0.000000 0.000000 0.000000 0.000000 0.000000 0.000000 -6.505700 5.141600 -27.134900 12.425300 0.000000 0.000000 -11.706300 0.668100 -14.815300 4.201900 0.000000 0.000000 -4.662600 -1.893000 20.801600 12.629100 0.000000 0.000000 -13.962100 14.101400 25.979000 -2.344700 0.000000 0.000000 
0.122133 -1.710642 0.894781 0.088100 1.102800 -179.882900 0.542600 -0.153500 -0.127900 1.195900 -0.450600 0.007600 1.322500 -1.145300 1.048200 0.456600 -0.398600 0.548400 -8.417700 2.747500 3.162700 -12.114900 5.814900 2.158000 -4.667500 -3.321700 13.969400 -30.828600 -38.701400 6.392600 0.000000 0.000100 76.128700 -31.805300 25.139800 0.571400 0.000000 0.000000 0.000000 0.000000 0.000000 0.000000 -2.676700 2.851900 -15.207000 -13.962700 35.059500 -27.649800 0.000000 -0.000100 -69.832100 -32.213700 -21.075500 -3.292300 0.000000 0.000000 0.000000 0.000000 0.000000 0.000000 -6.599700 5.242600 -27.127800 12.446600 0.000000 0.000000 -11.594200 0.637900 -14.903100 4.187900 0.000000 0.000000 -4.711800 -1.795500 20.906600 12.520800 0.000000 0.000000 -13.762500 14.122400 25.799600 -2.363000 0.000000 0.000000 
0.121661 -1.711714 0.894850 0.112100 1.172100 -179.827900 0.581600 -0.190900 -0.127900 1.237800 -0.491100 0.006200 1.211100 -1.141500 1.034600 0.407600 -0.430700 0.554400 -8.093500 2.972300 3.138400 -12.118700 5.766000 2.029900 -5.502300 -2.504300 14.718100 -32.774900 -37.780600 6.734900 0.000000 0.000100 74.357500 -34.495700 24.310100 0.285900 0.000000 0.000000 0.000000 0.000000 0.000000 0.000000 -3.519100 2.185100 -15.798000 -16.101700 35.809500 -28.056700 0.000000 -0.000100 -69.971900 -34.202100 -21.618700 -3.067300 0.000000 0.000000 0.000000 0.000000 0.000000 0.000000 -6.714700 5.365200 -26.967900 12.589300 0.000000 0.000000 -11.540200 0.631600 -15.111100 4.157300 0.000000 0.000000 -4.769900 -1.706300 20.991300 12.534700 0.000000 0.000000 -13.615100 14.122200 25.670200 -2.406100 0.000000 0.000000 
0.121196 -1.712618 0.894806 0.182500 1.251600 -179.795200 0.610500 -0.225900 -0.129000 1.257800 -0.531500 0.000800 1.140500 -1.157700 0.949900 0.369400 -0.447100 0.545100 -7.572600 3.160400 3.133200 -12.035500 5.703000 2.036700 -6.144400 -1.818900 15.256100 -33.532700 -37.264500 7.495700 0.000000 0.000100 72.481500 -36.192000 23.153500 0.054000 0.000000 0.000000 0.000000 0.000000 0.000000 0.000000 -3.990400 1.628000 -16.092200 -17.431900 36.850100 -28.613800 0.000000 -0.000100 -70.156200 -36.027400 -22.029100 -2.522800 0.000000 0.000000 0.000000 0.000000 0.000000 0.000000 -6.833600 5.510400 -26.680600 12.853900 0.000000 0.000000 -11.555300 0.663600 -15.417200 4.104200 0.000000 0.000000 -4.868300 -1.619000 20.847400 12.743200 0.000000 0.000000 -13.595600 14.087200 25.787000 -2.486800 0.000000 0.000000 
0.120835 -1.713433 0.894578 0.303700 1.316600 -179.806700 0.621200 -0.285000 -0.129600 1.250800 -0.578100 -0.007100 1.109600 -1.171000 0.839500 0.359300 -0.454900 0.525100 -6.819800 3.307400 3.151300 -11.833300 5.594300 2.123000 -6.486900 -1.301200 15.600900 -33.344600 -37.091600 8.536100 0.000000 0.000100 70.537900 -37.958300 21.697200 -0.084900 0.000000 0.000000 0.000000 0.000000 0.000000 0.000000 -4.043900 1.209200 -16.117200 -18.028800 38.150800 -29.265000 0.000000 -0.000100 -70.133700 -37.594200 -22.782100 -1.981200 0.000000 0.000000 0.000000 0.000000 0.000000 0.000000 -6.964700 5.645600 -26.256800 13.251900 0.000000 0.000000 -11.662300 0.728500 -15.811000 4.052700 0.000000 0.000000 -5.006700 -1.566700 20.505500 13.158700 0.000000 0.000000 -13.756800 14.016000 26.138800 -2.533800 0.000000 0.000000 
0.120675 -1.714226 0.894151 0.489600 1.366300 -179.909400 0.617600 -0.365600 -0.127300 1.224100 -0.627200 -0.012600 1.128500 -1.163200 0.778300 0.387000 -0.457800 0.506000 -5.812000 3.361500 3.168300 -11.528900 5.492600 2.203100 -6.550400 -1.040200 15.732600 -32.241200 -37.175700 9.849800 0.000000 0.000100 68.555800 -40.431000 19.923600 -0.389600 0.000000 0.000000 0.000000 0.000000 0.000000 0.000000 -3.712900 1.000500 -15.947700 -17.978300 39.682700 -29.894200 0.000000 -0.000100 -69.962600 -38.626400 -23.841000 -1.080200 0.000000 0.000000 0.000000 0.000000 0.000000 0.000000 -7.126200 5.764100 -25.649900 13.821800 0.000000 0.000000 -11.868500 0.829600 -16.291800 4.024300 0.000000 0.000000 -5.143200 -1.566700 20.174100 13.742100 0.000000 0.000000 -14.057300 13.926000 26.569600 -2.547200 0.000000 0.000000 
0.120680 -1.715079 0.893572 0.750500 1.433500 179.877600 0.622000 -0.431200 -0.122100 1.182400 -0.674700 -0.015100 1.208200 -1.133800 0.780100 0.455700 -0.446600 0.485600 -4.537800 3.295300 3.179900 -11.170500 5.434000 2.245600 -6.461200 -1.014300 15.646500 -30.198900 -37.636900 11.276800 0.000000 0.000100 66.708100 -43.465400 17.974600 -1.056300 0.000000 0.000000 0.000000 0.000000 0.000000 0.000000 -3.120000 1.009900 -15.555700 -16.956100 41.363400 -30.655500 0.000000 -0.000100 -69.905300 -38.834600 -24.831500 0.674000 0.000000 0.000000 0.000000 0.000000 0.000000 0.000000 -7.322300 5.898600 -24.856300 14.567800 0.000000 0.000000 -12.150200 0.969600 -16.834200 4.005100 0.000000 0.000000 -5.261400 -1.588800 19.939100 14.467800 0.000000 0.000000 -14.411700 13.841300 27.016700 -2.625700 0.000000 0.000000 
0.120815 -1.716103 0.892823 1.067400 1.531800 179.573700 0.649800 -0.471600 -0.114600 1.138200 -0.717100 -0.015600 1.329000 -1.090000 0.833900 0.568100 -0.422900 0.468700 -3.044700 3.188200 3.198700 -10.703000 5.367500 2.264000 -6.195700 -1.064900 15.299800 -27.330600 -38.662600 12.651200 0.000000 0.000100 65.104400 -46.729600 16.026400 -1.767000 0.000000 0.000000 0.000000 0.000000 0.000000 0.000000 -2.329900 1.161100 -14.868400 -14.608200 43.185500 -31.841100 0.000000 -0.000100 -69.782000 -38.645000 -25.527800 2.814100 0.000000 0.000000 0.000000 0.000000 0.000000 0.000000 -7.560700 6.059100 -23.913400 15.460000 0.000000 0.000000 -12.513300 1.126900 -17.415700 4.006100 0.000000 0.000000 -5.387600 -1.606000 19.724200 15.321300 0.000000 0.000000 -14.823000 13.767500 27.525800 -2.761800 0.000000 0.000000 
0.121173 -1.717406 0.891682 1.412200 1.638800 179.211900 0.703800 -0.504900 -0.106300 1.111800 -0.744500 -0.011900 1.493100 -1.043400 0.913900 0.720500 -0.409700 0.477300 -1.460500 3.132300 3.219000 -10.002800 5.254300 2.311100 -5.670500 -1.177900 14.663900 -23.400400 -40.022900 14.395700 0.000000 0.000100 63.650300 -49.645600 13.794000 -2.061700 0.000000 0.000000 0.000000 0.000000 0.000000 0.000000 -1.230500 1.413300 -13.963400 -11.328900 45.172200 -33.265900 0.000000 -0.000100 -69.286100 -39.095700 -25.366500 4.411600 0.000000 0.000000 0.000000 0.000000 0.000000 0.000000 -7.904200 6.228100 -22.838200 16.575700 0.000000 0.000000 -13.048500 1.298200 -18.052500 4.090400 0.000000 0.000000 -5.562100 -1.642100 19.500200 16.322600 0.000000 0.000000 -15.409100 13.670200 28.079900 -2.776600 0.000000 0.000000 
0.121872 -1.719105 0.889815 1.831600 1.725400 178.821600 0.825500 -0.534500 -0.105400 1.148300 -0.743000 -0.006600 1.765500 -1.007100 0.958300 0.904800 -0.415800 0.515400 0.124100 3.086500 3.239300 -9.109500 5.132200 2.467800 -4.985800 -1.540500 13.866600 -17.701300 -41.059500 17.307200 0.000000 0.000100 62.379300 -51.239000 10.843400 -2.291900 0.000000 0.000000 0.000000 0.000000 0.000000 0.000000 0.259700 1.743100 -12.982300 -7.508700 47.047800 -34.688300 0.000000 -0.000100 -68.999700 -40.225000 -23.655600 5.797800 0.000000 0.000000 0.000000 0.000000 0.000000 0.000000 -8.411100 6.397000 -21.618400 18.133500 0.000000 0.000000 -13.858500 1.545900 -18.768700 4.290800 0.000000 0.000000 -5.817100 -1.764300 19.330200 17.643500 0.000000 0.000000 -16.280400 13.481700 28.575300 -2.575100 0.000000 0.000000 
0.122832 -1.721467 0.886904 2.360300 1.831500 178.386700 1.061900 -0.510700 -0.114700 1.279800 -0.708700 -0.005100 2.200400 -0.968600 0.970300 1.121100 -0.428900 0.559300 1.749700 2.954600 3.320300 -8.259700 5.034200 2.728500 -4.216000 -2.141700 13.108100 -10.279500 -41.458100 21.320800 0.000000 0.000100 61.532300 -50.981800 7.508100 -3.081200 0.000000 0.000000 0.000000 0.000000 0.000000 0.000000 2.042000 1.965500 -11.882700 -2.176700 48.185800 -37.046900 0.000000 -0.000100 -69.831500 -40.605900 -21.316000 7.991100 0.000000 0.000000 0.000000 0.000000 0.000000 0.000000 -9.186400 6.626500 -20.206000 20.358200 0.000000 0.000000 -14.965400 1.956900 -19.553600 4.549200 0.000000 0.000000 -6.271500 -1.975400 19.248200 19.559400 0.000000 0.000000 -17.428900 13.148200 28.972900 -2.287200 0.000000 0.000000 
0.124046 -1.724556 0.882858 3.048000 1.955200 177.894500 1.512000 -0.445600 -0.133500 1.504000 -0.656600 0.000000 2.796000 -0.903900 1.103300 1.369900 -0.449800 0.617100 3.420500 2.769300 3.488100 -7.611700 4.930000 2.927500 -3.073600 -2.693800 12.356800 -2.647000 -41.783300 25.255200 0.000000 0.000100 61.090400 -49.359600 4.983200 -3.994600 0.000000 0.000000 0.000000 0.000000 0.000000 0.000000 3.955200 1.885500 -10.628300 5.767600 48.105600 -41.655600 0.000000 -0.000100 -71.151300 -38.974600 -20.749400 10.228900 0.000000 0.000000 0.000000 0.000000 0.000000 0.000000 -10.148500 6.889400 -18.688200 23.152600 0.000000 0.000000 -16.271700 2.512400 -20.320500 4.783100 0.000000 0.000000 -6.920800 -2.306100 19.331400 22.146600 0.000000 0.000000 -18.758800 12.689600 29.175800 -2.029300 0.000000 0.000000 
0.125519 -1.728526 0.877715 3.729100 2.112100 177.476700 2.088400 -0.349900 -0.137100 1.811400 -0.608200 0.015000 3.540800 -0.807700 1.424200 1.642400 -0.492200 0.718100 4.875800 2.655700 3.628200 -7.110500 4.812100 2.926600 -1.264700 -3.140000 11.367200 3.464500 -42.830200 28.080200 0.000000 0.000100 60.661400 -47.352200 4.313500 -3.872600 0.000000 0.000000 0.000000 0.000000 0.000000 0.000000 5.994100 1.628700 -9.567500 14.696700 47.034100 -47.499500 0.000000 -0.000100 -71.137200 -36.402600 -23.314000 10.561500 0.000000 0.000000 0.000000 0.000000 0.000000 0.000000 -11.337000 7.196900 -17.340800 26.286800 0.000000 0.000000 -17.690200 3.125500 -20.976100 4.959900 0.000000 0.000000 -7.834400 -2.726200 19.579400 25.158900 0.000000 0.000000 -20.180100 12.184400 29.090400 -1.720900 0.000000 0.000000 
0.127330 -1.733619 0.871624 4.169100 2.233300 177.481600 2.669100 -0.285500 -0.130800 2.158700 -0.552600 0.029600 4.465200 -0.750000 1.629300 1.912900 -0.549800 0.839900 5.766700 2.639900 3.599800 -6.710100 4.733900 2.833900 0.953300 -3.841100 10.040200 7.361000 -44.573000 29.596100 0.000000 0.000100 60.021900 -45.946100 4.556700 -2.345000 0.000000 0.000000 0.000000 0.000000 0.000000 0.000000 8.101300 1.545100 -9.142900 21.437800 46.166800 -51.682900 0.000000 -0.000100 -69.393600 -35.438700 -27.027200 8.508600 0.000000 0.000000 0.000000 0.000000 0.000000 0.000000 -12.794900 7.515200 -16.571100 29.496600 0.000000 0.000000 -19.121000 3.729400 -21.515100 5.083500 0.000000 0.000000 -9.182900 -3.263000 19.714500 28.348500 0.000000 0.000000 -21.635900 11.707200 28.731700 -1.298600 0.000000 0.000000 
